<?xml version="1.0" encoding="UTF-8" standalone="no"?>
<!-- Created with Inkscape (http://www.inkscape.org/) -->

<svg
   xmlns:dc="http://purl.org/dc/elements/1.1/"
   xmlns:cc="http://creativecommons.org/ns#"
   xmlns:rdf="http://www.w3.org/1999/02/22-rdf-syntax-ns#"
   xmlns:svg="http://www.w3.org/2000/svg"
   xmlns="http://www.w3.org/2000/svg"
   xmlns:sodipodi="http://sodipodi.sourceforge.net/DTD/sodipodi-0.dtd"
   xmlns:inkscape="http://www.inkscape.org/namespaces/inkscape"
   width="5.2916656mm"
   height="4.0979199mm"
   viewBox="0 0 5.2916656 4.0979199"
   version="1.1"
   id="svg4533"
   sodipodi:docname="drawing.svg"
   inkscape:version="0.92.5 (2060ec1f9f, 2020-04-08)">
  <defs
     id="defs4527" />
  <sodipodi:namedview
     id="base"
     pagecolor="#ffffff"
     bordercolor="#666666"
     borderopacity="1.0"
     inkscape:pageopacity="0.0"
     inkscape:pageshadow="2"
     inkscape:zoom="11.941168"
     inkscape:cx="12.902742"
     inkscape:cy="-14.015326"
     inkscape:document-units="mm"
     inkscape:current-layer="layer1"
     showgrid="false"
     inkscape:window-width="1920"
     inkscape:window-height="1009"
     inkscape:window-x="0"
     inkscape:window-y="0"
     inkscape:window-maximized="1"
     fit-margin-top="-0.4" />
  <metadata
     id="metadata4530">
    <rdf:RDF>
      <cc:Work
         rdf:about="">
        <dc:format>image/svg+xml</dc:format>
        <dc:type
           rdf:resource="http://purl.org/dc/dcmitype/StillImage" />
        <dc:title></dc:title>
      </cc:Work>
    </rdf:RDF>
  </metadata>
  <g
     inkscape:label="Layer 1"
     inkscape:groupmode="layer"
     id="layer1"
     transform="translate(-95.627976,-125.81771)">
    <path
       d="m 97.638483,125.81654 h -1.51438 c -0.139394,0 -0.252397,0.10796 -0.252397,0.24112 v 1.44674 c 0,0.13317 0.113003,0.24113 0.252397,0.24113 h 1.51438 c 0.139399,0 0.252398,-0.10796 0.252398,-0.24113 v -1.44674 c 0,-0.13316 -0.112999,-0.24112 -0.252398,-0.24112 z"
       id="path4133"
       inkscape:connector-curvature="0"
       style="fill:#a3dce0;stroke-width:0.24669538" />
    <path
       d="m 99.910055,125.81654 h -1.514382 c -0.139398,0 -0.252396,0.10796 -0.252396,0.24112 v 1.44674 c 0,0.13317 0.112998,0.24113 0.252396,0.24113 h 1.514382 c 0.139405,0 0.252395,-0.10796 0.252395,-0.24113 v -1.44674 c 0,-0.13316 -0.11299,-0.24112 -0.252395,-0.24112 z"
       id="path4135"
       inkscape:connector-curvature="0"
       style="fill:#bcdd9c;stroke-width:0.24669538" />
    <path
       d="m 98.395673,127.98664 h -1.51438 c -0.139394,0 -0.252397,0.10795 -0.252397,0.24112 v 1.44674 c 0,0.13317 0.113003,0.24113 0.252397,0.24113 h 1.51438 c 0.139401,0 0.252399,-0.10796 0.252399,-0.24113 v -1.44674 c 0,-0.13317 -0.112998,-0.24112 -0.252399,-0.24112 z"
       id="path4137"
       inkscape:connector-curvature="0"
       style="fill:#f4b3c2;stroke-width:0.24669538" />
    <path
       d="m 100.66725,127.98664 h -1.514385 c -0.139399,0 -0.252396,0.10795 -0.252396,0.24112 v 1.44674 c 0,0.13317 0.112997,0.24113 0.252396,0.24113 h 1.514385 c 0.1394,0 0.25239,-0.10796 0.25239,-0.24113 v -1.44674 c 0,-0.13317 -0.11299,-0.24112 -0.25239,-0.24112 z"
       id="path4139"
       inkscape:connector-curvature="0"
       style="fill:#fdcf8c;stroke-width:0.24669538" />
  </g>
</svg>
