<?xml version="1.0" encoding="UTF-8" standalone="no"?>
<!-- Created with Inkscape (http://www.inkscape.org/) -->

<svg
   xmlns:dc="http://purl.org/dc/elements/1.1/"
   xmlns:cc="http://creativecommons.org/ns#"
   xmlns:rdf="http://www.w3.org/1999/02/22-rdf-syntax-ns#"
   xmlns:svg="http://www.w3.org/2000/svg"
   xmlns="http://www.w3.org/2000/svg"
   xmlns:sodipodi="http://sodipodi.sourceforge.net/DTD/sodipodi-0.dtd"
   xmlns:inkscape="http://www.inkscape.org/namespaces/inkscape"
   width="5.291667mm"
   height="5.5562501mm"
   viewBox="0 0 5.291667 5.5562501"
   version="1.1"
   id="svg4998"
   inkscape:version="0.92.5 (2060ec1f9f, 2020-04-08)"
   sodipodi:docname="keyboard-key-d.svg">
  <defs
     id="defs4992" />
  <sodipodi:namedview
     id="base"
     pagecolor="#ffffff"
     bordercolor="#666666"
     borderopacity="1.0"
     inkscape:pageopacity="0.0"
     inkscape:pageshadow="2"
     inkscape:zoom="0.35"
     inkscape:cx="235.71429"
     inkscape:cy="121.92857"
     inkscape:document-units="mm"
     inkscape:current-layer="layer1"
     showgrid="false"
     inkscape:window-width="1920"
     inkscape:window-height="1009"
     inkscape:window-x="0"
     inkscape:window-y="0"
     inkscape:window-maximized="1" />
  <metadata
     id="metadata4995">
    <rdf:RDF>
      <cc:Work
         rdf:about="">
        <dc:format>image/svg+xml</dc:format>
        <dc:type
           rdf:resource="http://purl.org/dc/dcmitype/StillImage" />
        <dc:title></dc:title>
      </cc:Work>
    </rdf:RDF>
  </metadata>
  <g
     inkscape:label="Layer 1"
     inkscape:groupmode="layer"
     id="layer1"
     transform="translate(-43.467262,-175.53735)">
    <path
       inkscape:connector-curvature="0"
       style="clip-rule:evenodd;fill:#5b5b5b;fill-rule:evenodd;stroke-width:0.26458332"
       d="M 45.029256,175.53735 H 45.6206 l 1.214596,3.1083 c -0.165232,0.0966 -0.309695,0.22471 -0.425132,0.37624 l -0.265087,-0.73094 h -1.667986 l -0.451882,1.21515 h -0.557847 z m -0.401664,2.33553 h 1.361175 l -0.675005,-1.83385 z"
       id="path4335" />
    <path
       inkscape:connector-curvature="0"
       style="fill:#d02b2b;stroke-width:0.26458332"
       d="m 47.568304,181.0936 c 0.657568,0 1.190625,-0.53305 1.190625,-1.19062 0,-0.65757 -0.533057,-1.19063 -1.190625,-1.19063 -0.657569,0 -1.190625,0.53306 -1.190625,1.19063 0,0.65757 0.533056,1.19062 1.190625,1.19062 z"
       id="path4447" />
    <path
       inkscape:connector-curvature="0"
       style="clip-rule:evenodd;fill:#ffffff;fill-rule:evenodd;stroke-width:0.26458332"
       d="m 47.381217,179.903 -0.43561,-0.43563 0.187087,-0.18709 0.43561,0.43564 0.435636,-0.43564 0.187087,0.18709 -0.435637,0.43563 0.435637,0.43561 -0.187087,0.18709 -0.435636,-0.43561 -0.43561,0.43561 -0.187087,-0.18709 z"
       id="path4449" />
  </g>
</svg>
