<?xml version="1.0" encoding="UTF-8" standalone="no"?>
<!-- Created with Inkscape (http://www.inkscape.org/) -->

<svg
   xmlns:dc="http://purl.org/dc/elements/1.1/"
   xmlns:cc="http://creativecommons.org/ns#"
   xmlns:rdf="http://www.w3.org/1999/02/22-rdf-syntax-ns#"
   xmlns:svg="http://www.w3.org/2000/svg"
   xmlns="http://www.w3.org/2000/svg"
   xmlns:sodipodi="http://sodipodi.sourceforge.net/DTD/sodipodi-0.dtd"
   xmlns:inkscape="http://www.inkscape.org/namespaces/inkscape"
   width="5.8208332mm"
   height="5.8208499mm"
   viewBox="0 0 5.8208332 5.8208499"
   version="1.1"
   id="svg4817"
   inkscape:version="0.92.5 (2060ec1f9f, 2020-04-08)"
   sodipodi:docname="letter-d.svg">
  <defs
     id="defs4811" />
  <sodipodi:namedview
     id="base"
     pagecolor="#ffffff"
     bordercolor="#666666"
     borderopacity="1.0"
     inkscape:pageopacity="0.0"
     inkscape:pageshadow="2"
     inkscape:zoom="0.35"
     inkscape:cx="191"
     inkscape:cy="-134.71428"
     inkscape:document-units="mm"
     inkscape:current-layer="layer1"
     showgrid="false"
     inkscape:window-width="1920"
     inkscape:window-height="1009"
     inkscape:window-x="0"
     inkscape:window-y="0"
     inkscape:window-maximized="1" />
  <metadata
     id="metadata4814">
    <rdf:RDF>
      <cc:Work
         rdf:about="">
        <dc:format>image/svg+xml</dc:format>
        <dc:type
           rdf:resource="http://purl.org/dc/dcmitype/StillImage" />
        <dc:title></dc:title>
      </cc:Work>
    </rdf:RDF>
  </metadata>
  <g
     inkscape:label="Layer 1"
     inkscape:groupmode="layer"
     id="layer1"
     transform="translate(-55.297917,-107.36933)">
    <path
       inkscape:connector-curvature="0"
       style="fill:#5b5b5b;stroke-width:0.26458332"
       d="m 60.060417,107.63393 c 0,-0.0359 -0.0071,-0.0701 -0.02008,-0.10128 -0.0268,-0.0647 -0.07856,-0.11642 -0.143219,-0.14322 -0.03119,-0.0129 -0.0654,-0.0201 -0.101283,-0.0201 H 59.53125 v 0.26458 h 0.264583 v 0.26458 h 0.264584 z"
       id="path4305" />
    <path
       inkscape:connector-curvature="0"
       style="fill:#5b5b5b;stroke-width:0.26458332"
       d="m 55.317999,111.70396 c 0.0268,0.0647 0.07855,0.11642 0.143219,0.14322 0.03119,0.0129 0.0654,0.0201 0.101282,0.0201 h 0.264583 V 111.6027 H 55.5625 v -0.26458 h -0.264583 v 0.26458 c 0,0.0359 0.0071,0.0701 0.02008,0.10128 z"
       id="path4307" />
    <path
       inkscape:connector-curvature="0"
       style="fill:#5b5b5b;stroke-width:0.26458332"
       d="m 55.5625,107.36935 c -0.03588,0 -0.07009,0.007 -0.101282,0.0201 -0.06467,0.0268 -0.116417,0.0785 -0.143219,0.14322 -0.01294,0.0312 -0.02008,0.0654 -0.02008,0.10128 v 0.26458 H 55.5625 v -0.26458 h 0.264583 v -0.26458 z"
       id="path4309" />
    <path
       inkscape:connector-curvature="0"
       style="fill:#5b5b5b;stroke-width:0.26458332"
       d="M 55.297917,110.85854 H 55.5625 v -0.4961 h -0.264583 z"
       id="path4311" />
    <path
       inkscape:connector-curvature="0"
       style="fill:#5b5b5b;stroke-width:0.26458332"
       d="M 55.297917,109.86635 H 55.5625 v -0.49609 h -0.264583 z"
       id="path4313" />
    <path
       inkscape:connector-curvature="0"
       style="fill:#5b5b5b;stroke-width:0.26458332"
       d="M 55.297917,108.87416 H 55.5625 v -0.49609 h -0.264583 z"
       id="path4315" />
    <path
       inkscape:connector-curvature="0"
       style="fill:#5b5b5b;stroke-width:0.26458332"
       d="m 56.35625,107.36935 v 0.26458 h 0.529167 v -0.26458 z"
       id="path4317" />
    <path
       inkscape:connector-curvature="0"
       style="fill:#5b5b5b;stroke-width:0.26458332"
       d="m 57.414583,107.36935 v 0.26458 h 0.529167 v -0.26458 z"
       id="path4319" />
    <path
       inkscape:connector-curvature="0"
       style="fill:#5b5b5b;stroke-width:0.26458332"
       d="m 58.472917,107.36935 v 0.26458 h 0.529166 v -0.26458 z"
       id="path4321" />
    <path
       inkscape:connector-curvature="0"
       style="fill:#5b5b5b;stroke-width:0.26458332"
       d="m 60.060417,108.37807 h -0.264584 v 0.49609 h 0.264584 z"
       id="path4323" />
    <path
       inkscape:connector-curvature="0"
       style="fill:#5b5b5b;stroke-width:0.26458332"
       d="m 60.060417,109.37026 h -0.264584 v 0.49609 h 0.264584 z"
       id="path4325" />
    <path
       inkscape:connector-curvature="0"
       style="fill:#5b5b5b;stroke-width:0.26458332"
       d="m 60.060417,110.36244 h -0.264584 v 0.18783 c 0.04358,-0.004 0.08771,-0.006 0.132292,-0.006 0.04458,0 0.08872,0.002 0.132292,0.006 z"
       id="path4327" />
    <path
       inkscape:connector-curvature="0"
       style="fill:#5b5b5b;stroke-width:0.26458332"
       d="m 57.94375,111.86726 v -0.26458 h -0.529167 v 0.26458 z"
       id="path4329" />
    <path
       inkscape:connector-curvature="0"
       style="fill:#5b5b5b;stroke-width:0.26458332"
       d="m 56.885417,111.86726 v -0.26458 H 56.35625 v 0.26458 z"
       id="path4331" />
    <path
       inkscape:connector-curvature="0"
       style="clip-rule:evenodd;fill:#5b5b5b;fill-rule:evenodd;stroke-width:0.26458332"
       d="m 57.851305,108.42768 h -0.3379 l -0.892572,2.38125 h 0.31877 l 0.258207,-0.72909 h 0.953135 l 0.251831,0.72909 H 58.7375 Z m 0.210396,1.40131 h -0.777822 l 0.392113,-1.10032 z"
       id="path4333" />
    <path
       inkscape:connector-curvature="0"
       style="fill:#d02b2b;stroke-width:0.26458332"
       d="m 59.928125,113.19018 c 0.657569,0 1.190625,-0.53306 1.190625,-1.19063 0,-0.65757 -0.533056,-1.19062 -1.190625,-1.19062 -0.657569,0 -1.190625,0.53305 -1.190625,1.19062 0,0.65757 0.533056,1.19063 1.190625,1.19063 z"
       id="path4443" />
    <path
       inkscape:connector-curvature="0"
       style="clip-rule:evenodd;fill:#ffffff;fill-rule:evenodd;stroke-width:0.26458332"
       d="m 59.741038,111.99958 -0.43561,-0.43564 0.187087,-0.18708 0.43561,0.43563 0.435636,-0.43563 0.187087,0.18708 -0.435636,0.43564 0.435636,0.43561 -0.187087,0.18709 -0.435636,-0.43561 -0.43561,0.43561 -0.187087,-0.18709 z"
       id="path4445" />
  </g>
</svg>
