<?xml version="1.0" encoding="UTF-8" standalone="no"?>
<!-- Created with Inkscape (http://www.inkscape.org/) -->

<svg
   xmlns:dc="http://purl.org/dc/elements/1.1/"
   xmlns:cc="http://creativecommons.org/ns#"
   xmlns:rdf="http://www.w3.org/1999/02/22-rdf-syntax-ns#"
   xmlns:svg="http://www.w3.org/2000/svg"
   xmlns="http://www.w3.org/2000/svg"
   xmlns:sodipodi="http://sodipodi.sourceforge.net/DTD/sodipodi-0.dtd"
   xmlns:inkscape="http://www.inkscape.org/namespaces/inkscape"
   width="4.7625051mm"
   height="4.4979501mm"
   viewBox="0 0 4.7625051 4.4979501"
   version="1.1"
   id="svg4727"
   inkscape:version="0.92.5 (2060ec1f9f, 2020-04-08)"
   sodipodi:docname="letter-a.svg">
  <defs
     id="defs4721" />
  <sodipodi:namedview
     id="base"
     pagecolor="#ffffff"
     bordercolor="#666666"
     borderopacity="1.0"
     inkscape:pageopacity="0.0"
     inkscape:pageshadow="2"
     inkscape:zoom="31.678384"
     inkscape:cx="4.9856992"
     inkscape:cy="8.1719997"
     inkscape:document-units="mm"
     inkscape:current-layer="layer1"
     showgrid="false"
     inkscape:window-width="1920"
     inkscape:window-height="1009"
     inkscape:window-x="0"
     inkscape:window-y="0"
     inkscape:window-maximized="1" />
  <metadata
     id="metadata4724">
    <rdf:RDF>
      <cc:Work
         rdf:about="">
        <dc:format>image/svg+xml</dc:format>
        <dc:type
           rdf:resource="http://purl.org/dc/dcmitype/StillImage" />
        <dc:title></dc:title>
      </cc:Work>
    </rdf:RDF>
  </metadata>
  <g
     inkscape:label="Layer 1"
     inkscape:groupmode="layer"
     id="layer1"
     transform="translate(-33.904461,-121.63793)">
    <path
       inkscape:connector-curvature="0"
       style="fill:#5b5b5b;stroke-width:0.26458332"
       d="m 38.666964,121.90253 c 0,-0.0359 -0.0071,-0.0701 -0.02008,-0.10128 -0.0268,-0.0647 -0.07855,-0.11642 -0.143219,-0.14322 -0.03119,-0.0129 -0.06541,-0.0201 -0.101282,-0.0201 H 38.1378 v 0.26458 h 0.264583 v 0.26458 h 0.264583 z"
       id="path4147" />
    <path
       inkscape:connector-curvature="0"
       style="fill:#5b5b5b;stroke-width:0.26458332"
       d="m 33.924541,125.97256 c 0.02682,0.0647 0.07855,0.11642 0.143227,0.14322 0.0312,0.0129 0.0654,0.0201 0.10128,0.0201 h 0.264583 v -0.26458 h -0.264583 v -0.26458 h -0.264584 v 0.26458 c 0,0.0359 0.0071,0.0701 0.02008,0.10128 z"
       id="path4149" />
    <path
       inkscape:connector-curvature="0"
       style="fill:#5b5b5b;stroke-width:0.26458332"
       d="m 38.503663,126.11578 c -0.03119,0.0129 -0.06541,0.0201 -0.101282,0.0201 h -0.264583 v -0.26458 h 0.264583 v -0.26458 h 0.264583 v 0.26458 c 0,0.0359 -0.0071,0.0701 -0.02008,0.10128 -0.0268,0.0647 -0.07856,0.11642 -0.143219,0.14322 z"
       id="path4151" />
    <path
       inkscape:connector-curvature="0"
       style="fill:#5b5b5b;stroke-width:0.26458332"
       d="m 34.169048,121.63795 c -0.03587,0 -0.07008,0.007 -0.10128,0.0201 -0.06468,0.0268 -0.116406,0.0786 -0.143227,0.14322 -0.01294,0.0312 -0.02008,0.0654 -0.02008,0.10128 v 0.26458 h 0.264584 v -0.26458 h 0.264583 v -0.26458 z"
       id="path4153" />
    <path
       inkscape:connector-curvature="0"
       style="fill:#5b5b5b;stroke-width:0.26458332"
       d="m 34.169048,125.12714 h -0.264584 v -0.49609 h 0.264584 z"
       id="path4155" />
    <path
       inkscape:connector-curvature="0"
       style="fill:#5b5b5b;stroke-width:0.26458332"
       d="m 33.904464,124.13495 h 0.264584 v -0.49609 h -0.264584 z"
       id="path4157" />
    <path
       inkscape:connector-curvature="0"
       style="fill:#5b5b5b;stroke-width:0.26458332"
       d="m 34.169048,123.14276 h -0.264584 v -0.49609 h 0.264584 z"
       id="path4159" />
    <path
       inkscape:connector-curvature="0"
       style="fill:#5b5b5b;stroke-width:0.26458332"
       d="m 34.962798,121.63795 v 0.26458 h 0.529166 v -0.26458 z"
       id="path4161" />
    <path
       inkscape:connector-curvature="0"
       style="fill:#5b5b5b;stroke-width:0.26458332"
       d="m 36.021131,121.90253 v -0.26458 h 0.529167 v 0.26458 z"
       id="path4163" />
    <path
       inkscape:connector-curvature="0"
       style="fill:#5b5b5b;stroke-width:0.26458332"
       d="m 37.079464,121.63795 v 0.26458 h 0.529167 v -0.26458 z"
       id="path4165" />
    <path
       inkscape:connector-curvature="0"
       style="fill:#5b5b5b;stroke-width:0.26458332"
       d="m 38.402381,122.64667 h 0.264583 v 0.49609 h -0.264583 z"
       id="path4167" />
    <path
       inkscape:connector-curvature="0"
       style="fill:#5b5b5b;stroke-width:0.26458332"
       d="m 38.666964,123.63886 h -0.264583 v 0.49609 h 0.264583 z"
       id="path4169" />
    <path
       inkscape:connector-curvature="0"
       style="fill:#5b5b5b;stroke-width:0.26458332"
       d="m 38.402381,124.63105 h 0.264583 v 0.49609 h -0.264583 z"
       id="path4171" />
    <path
       inkscape:connector-curvature="0"
       style="fill:#5b5b5b;stroke-width:0.26458332"
       d="m 37.608631,126.13586 v -0.26458 h -0.529167 v 0.26458 z"
       id="path4173" />
    <path
       inkscape:connector-curvature="0"
       style="fill:#5b5b5b;stroke-width:0.26458332"
       d="m 36.550298,125.87128 v 0.26458 h -0.529167 v -0.26458 z"
       id="path4175" />
    <path
       inkscape:connector-curvature="0"
       style="fill:#5b5b5b;stroke-width:0.26458332"
       d="m 35.491964,126.13586 v -0.26458 h -0.529166 v 0.26458 z"
       id="path4177" />
    <path
       inkscape:connector-curvature="0"
       style="clip-rule:evenodd;fill:#5b5b5b;fill-rule:evenodd;stroke-width:0.26458332"
       d="m 36.119953,122.69628 h 0.337899 l 0.886196,2.38125 h -0.334725 l -0.25183,-0.72909 h -0.953135 l -0.258207,0.72909 h -0.31877 z m -0.229526,1.40131 h 0.777822 l -0.38571,-1.10032 z"
       id="path4179" />
  </g>
</svg>
