<?xml version="1.0" encoding="UTF-8" standalone="no"?>
<!-- Created with Inkscape (http://www.inkscape.org/) -->

<svg
   xmlns:dc="http://purl.org/dc/elements/1.1/"
   xmlns:cc="http://creativecommons.org/ns#"
   xmlns:rdf="http://www.w3.org/1999/02/22-rdf-syntax-ns#"
   xmlns:svg="http://www.w3.org/2000/svg"
   xmlns="http://www.w3.org/2000/svg"
   xmlns:sodipodi="http://sodipodi.sourceforge.net/DTD/sodipodi-0.dtd"
   xmlns:inkscape="http://www.inkscape.org/namespaces/inkscape"
   width="6.3499999mm"
   height="5.5562501mm"
   viewBox="0 0 6.3499999 5.5562501"
   version="1.1"
   id="svg5375"
   inkscape:version="0.92.5 (2060ec1f9f, 2020-04-08)"
   sodipodi:docname="metronome-d.svg">
  <defs
     id="defs5369" />
  <sodipodi:namedview
     id="base"
     pagecolor="#ffffff"
     bordercolor="#666666"
     borderopacity="1.0"
     inkscape:pageopacity="0.0"
     inkscape:pageshadow="2"
     inkscape:zoom="0.35"
     inkscape:cx="46.285713"
     inkscape:cy="-43.785726"
     inkscape:document-units="mm"
     inkscape:current-layer="layer1"
     showgrid="false"
     inkscape:window-width="1920"
     inkscape:window-height="1009"
     inkscape:window-x="0"
     inkscape:window-y="0"
     inkscape:window-maximized="1" />
  <metadata
     id="metadata5372">
    <rdf:RDF>
      <cc:Work
         rdf:about="">
        <dc:format>image/svg+xml</dc:format>
        <dc:type
           rdf:resource="http://purl.org/dc/dcmitype/StillImage" />
        <dc:title></dc:title>
      </cc:Work>
    </rdf:RDF>
  </metadata>
  <g
     inkscape:label="Layer 1"
     inkscape:groupmode="layer"
     id="layer1"
     transform="translate(-93.586905,-131.69211)">
    <path
       inkscape:connector-curvature="0"
       style="fill:#5b5b5b;stroke-width:0.26458332"
       d="m 95.663064,131.90801 c 0.02347,-0.12514 0.132741,-0.2159 0.260059,-0.2159 h 1.942094 c 0.127318,0 0.236564,0.0908 0.260033,0.2159 l 0.506095,2.69902 c -0.08948,0.007 -0.176663,0.022 -0.260853,0.0444 l -0.505275,-2.69478 h -1.942094 l -0.316098,1.68592 -0.226695,-0.22675 z"
       id="path4297" />
    <path
       inkscape:connector-curvature="0"
       style="fill:#5b5b5b;stroke-width:0.26458332"
       d="m 97.909403,134.86711 h -1.077728 l 0.589148,0.58923 c 0.107871,-0.23733 0.277601,-0.44053 0.48858,-0.58923 z"
       id="path4299" />
    <path
       inkscape:connector-curvature="0"
       style="fill:#5b5b5b;stroke-width:0.26458332"
       d="m 97.326684,135.73627 -2.617258,-2.61726 0.187087,-0.18706 -0.561261,-0.56118 -0.187087,0.18706 -0.374173,-0.37412 -0.187087,0.18706 0.374174,0.37412 -0.187087,0.18706 0.56126,0.56145 0.187087,-0.18733 2.768838,2.76887 c -7.9e-5,-0.006 -1.06e-4,-0.0114 -1.06e-4,-0.0172 0,-0.11033 0.0123,-0.21802 0.03561,-0.32147 z"
       id="path4301" />
    <path
       inkscape:connector-curvature="0"
       style="fill:#5b5b5b;stroke-width:0.26458332"
       d="m 95.203138,134.36123 0.226669,0.22648 -0.05236,0.2794 h 0.331655 l 1.058334,1.05834 h -1.538817 c -0.165656,0 -0.290592,-0.15055 -0.260059,-0.31327 z"
       id="path4303" />
    <path
       inkscape:connector-curvature="0"
       style="fill:#d02b2b;stroke-width:0.26458332"
       d="m 98.74628,137.24836 c 0.657569,0 1.190625,-0.53313 1.190625,-1.19062 0,-0.65749 -0.533056,-1.19063 -1.190625,-1.19063 -0.657569,0 -1.190625,0.53314 -1.190625,1.19063 0,0.65749 0.533056,1.19062 1.190625,1.19062 z"
       id="path4459" />
    <path
       inkscape:connector-curvature="0"
       style="clip-rule:evenodd;fill:#ffffff;fill-rule:evenodd;stroke-width:0.26458332"
       d="m 98.559193,136.05774 -0.43561,-0.43551 0.187087,-0.18732 0.43561,0.43577 0.435636,-0.43577 0.187087,0.18732 -0.435636,0.43551 0.435636,0.4355 -0.187087,0.18733 -0.435636,-0.43577 -0.43561,0.43577 -0.187087,-0.18733 z"
       id="path4461" />
  </g>
</svg>
