<?xml version="1.0" encoding="UTF-8" standalone="no"?>
<!-- Created with Inkscape (http://www.inkscape.org/) -->

<svg
   xmlns:dc="http://purl.org/dc/elements/1.1/"
   xmlns:cc="http://creativecommons.org/ns#"
   xmlns:rdf="http://www.w3.org/1999/02/22-rdf-syntax-ns#"
   xmlns:svg="http://www.w3.org/2000/svg"
   xmlns="http://www.w3.org/2000/svg"
   xmlns:sodipodi="http://sodipodi.sourceforge.net/DTD/sodipodi-0.dtd"
   xmlns:inkscape="http://www.inkscape.org/namespaces/inkscape"
   width="6.3500099mm"
   height="6.6145802mm"
   viewBox="0 0 6.3500099 6.6145802"
   version="1.1"
   id="svg5190"
   inkscape:version="0.92.5 (2060ec1f9f, 2020-04-08)"
   sodipodi:docname="sound-d.svg">
  <defs
     id="defs5184" />
  <sodipodi:namedview
     id="base"
     pagecolor="#ffffff"
     bordercolor="#666666"
     borderopacity="1.0"
     inkscape:pageopacity="0.0"
     inkscape:pageshadow="2"
     inkscape:zoom="0.35"
     inkscape:cx="-2.2857323"
     inkscape:cy="6.7857134"
     inkscape:document-units="mm"
     inkscape:current-layer="layer1"
     showgrid="false"
     inkscape:window-width="1920"
     inkscape:window-height="1009"
     inkscape:window-x="0"
     inkscape:window-y="0"
     inkscape:window-maximized="1" />
  <metadata
     id="metadata5187">
    <rdf:RDF>
      <cc:Work
         rdf:about="">
        <dc:format>image/svg+xml</dc:format>
        <dc:type
           rdf:resource="http://purl.org/dc/dcmitype/StillImage" />
        <dc:title></dc:title>
      </cc:Work>
    </rdf:RDF>
  </metadata>
  <g
     inkscape:label="Layer 1"
     inkscape:groupmode="layer"
     id="layer1"
     transform="translate(-106.4381,-144.01414)">
    <path
       inkscape:connector-curvature="0"
       style="fill:#a8a8a8;stroke-width:0.26458332"
       d="m 106.70268,145.60164 c -0.14613,0 -0.26458,0.11853 -0.26458,0.26458 v 2.64583 c 0,0.14605 0.11845,0.26459 0.26458,0.26459 h 3.59825 c 0.22188,-0.43392 0.65527,-0.74189 1.16425,-0.78793 v -2.12249 c 0,-0.14605 -0.11846,-0.26458 -0.26458,-0.26458 z"
       id="path4339" />
    <path
       inkscape:connector-curvature="0"
       style="fill:#fefefe;stroke-width:0.26458332"
       d="m 106.96726,146.1308 h 0.52917 v 0.52917 h -0.52917 z"
       id="path4341" />
    <path
       inkscape:connector-curvature="0"
       style="fill:#fefefe;stroke-width:0.26458332"
       d="m 107.76101,146.1308 h 0.52917 v 0.52917 h -0.52917 z"
       id="path4343" />
    <path
       inkscape:connector-curvature="0"
       style="fill:#fefefe;stroke-width:0.26458332"
       d="m 108.55476,146.1308 h 0.52917 v 0.52917 h -0.52917 z"
       id="path4345" />
    <path
       inkscape:connector-curvature="0"
       style="fill:#fefefe;stroke-width:0.26458332"
       d="m 109.34851,146.1308 h 0.52917 v 0.52917 h -0.52917 z"
       id="path4347" />
    <path
       inkscape:connector-curvature="0"
       style="fill:#fefefe;stroke-width:0.26458332"
       d="m 110.14226,146.1308 h 0.52917 v 0.52917 h -0.52917 z"
       id="path4349" />
    <path
       inkscape:connector-curvature="0"
       style="fill:#fefefe;stroke-width:0.26458332"
       d="m 108.55476,146.92455 v 0.52917 h -0.52916 v -0.52917 z"
       id="path4351" />
    <path
       inkscape:connector-curvature="0"
       style="fill:#fefefe;stroke-width:0.26458332"
       d="m 106.96726,146.92455 h 0.79375 v 0.52917 h -0.79375 z"
       id="path4353" />
    <path
       inkscape:connector-curvature="0"
       style="fill:#fefefe;stroke-width:0.26458332"
       d="m 110.76057,148.24747 c 0.0557,-0.0392 0.11432,-0.0746 0.17544,-0.10583 v -0.42334 h -3.175 v 0.52917 z"
       id="path4355" />
    <path
       inkscape:connector-curvature="0"
       style="fill:#fefefe;stroke-width:0.26458332"
       d="m 106.96726,147.7183 h 0.52917 v 0.52917 h -0.52917 z"
       id="path4357" />
    <path
       inkscape:connector-curvature="0"
       style="fill:#fefefe;stroke-width:0.26458332"
       d="m 109.34851,146.92455 v 0.52917 h -0.52916 v -0.52917 z"
       id="path4359" />
    <path
       inkscape:connector-curvature="0"
       style="fill:#fefefe;stroke-width:0.26458332"
       d="m 110.14226,146.92455 v 0.52917 h -0.52916 v -0.52917 z"
       id="path4361" />
    <path
       inkscape:connector-curvature="0"
       style="fill:#fefefe;stroke-width:0.26458332"
       d="m 110.93601,146.92455 v 0.52917 h -0.52916 v -0.52917 z"
       id="path4363" />
    <path
       inkscape:connector-curvature="0"
       style="fill:#585858;stroke-width:0.26458332"
       d="m 112.29155,146.36284 -0.82637,-0.82656 v 2.45243 c -0.18915,0.0172 -0.36788,0.0704 -0.52917,0.15293 v -4.1275 l 0.003,0.003 v -0.003 l 1.8491,1.85208 z"
       id="path4365" />
    <path
       inkscape:connector-curvature="0"
       style="fill:#585858;stroke-width:0.26458332"
       d="m 110.63243,148.34881 c -0.18873,-0.0648 -0.39976,-0.10134 -0.62246,-0.10134 -0.8037,0 -1.45521,0.47387 -1.45521,1.05833 0,0.58447 0.65151,1.05834 1.45521,1.05834 0.14896,0 0.29271,-0.0164 0.42804,-0.0466 -0.18558,-0.24421 -0.29575,-0.54901 -0.29575,-0.87947 0,-0.43339 0.1895,-0.82259 0.49017,-1.08929 z"
       id="path4367" />
    <path
       inkscape:connector-curvature="0"
       style="fill:#d02b2b;stroke-width:0.26458332"
       d="m 111.59747,150.62872 c 0.65757,0 1.19063,-0.53314 1.19063,-1.19062 0,-0.65749 -0.53306,-1.19063 -1.19063,-1.19063 -0.65757,0 -1.19062,0.53314 -1.19062,1.19063 0,0.65748 0.53305,1.19062 1.19062,1.19062 z"
       id="path4455" />
    <path
       inkscape:connector-curvature="0"
       style="clip-rule:evenodd;fill:#ffffff;fill-rule:evenodd;stroke-width:0.26458332"
       d="m 111.41038,149.4381 -0.43561,-0.43551 0.18709,-0.18732 0.43561,0.43576 0.43564,-0.43576 0.18708,0.18732 -0.43563,0.43551 0.43563,0.4355 -0.18708,0.18732 -0.43564,-0.43576 -0.43561,0.43576 -0.18709,-0.18732 z"
       id="path4457" />
  </g>
</svg>
