<?xml version="1.0" encoding="UTF-8" standalone="no"?>
<!-- Created with Inkscape (http://www.inkscape.org/) -->

<svg
   xmlns:dc="http://purl.org/dc/elements/1.1/"
   xmlns:cc="http://creativecommons.org/ns#"
   xmlns:rdf="http://www.w3.org/1999/02/22-rdf-syntax-ns#"
   xmlns:svg="http://www.w3.org/2000/svg"
   xmlns="http://www.w3.org/2000/svg"
   xmlns:sodipodi="http://sodipodi.sourceforge.net/DTD/sodipodi-0.dtd"
   xmlns:inkscape="http://www.inkscape.org/namespaces/inkscape"
   width="6.3499999mm"
   height="6.3499999mm"
   viewBox="0 0 6.3499999 6.3499999"
   version="1.1"
   id="svg5063"
   inkscape:version="0.92.5 (2060ec1f9f, 2020-04-08)"
   sodipodi:docname="sound-a.svg">
  <defs
     id="defs5057" />
  <sodipodi:namedview
     id="base"
     pagecolor="#ffffff"
     bordercolor="#666666"
     borderopacity="1.0"
     inkscape:pageopacity="0.0"
     inkscape:pageshadow="2"
     inkscape:zoom="7.9195959"
     inkscape:cx="4.4585276"
     inkscape:cy="7.8867506"
     inkscape:document-units="mm"
     inkscape:current-layer="layer1"
     showgrid="false"
     inkscape:window-width="1920"
     inkscape:window-height="1009"
     inkscape:window-x="0"
     inkscape:window-y="0"
     inkscape:window-maximized="1" />
  <metadata
     id="metadata5060">
    <rdf:RDF>
      <cc:Work
         rdf:about="">
        <dc:format>image/svg+xml</dc:format>
        <dc:type
           rdf:resource="http://purl.org/dc/dcmitype/StillImage" />
        <dc:title></dc:title>
      </cc:Work>
    </rdf:RDF>
  </metadata>
  <g
     inkscape:label="Layer 1"
     inkscape:groupmode="layer"
     id="layer1"
     transform="translate(-120.04524,-120.7119)">
    <path
       inkscape:connector-curvature="0"
       style="fill:#a8a8a8;stroke-width:0.26458332"
       d="m 120.04524,122.56399 c 0,-0.14605 0.11846,-0.26459 0.26458,-0.26459 h 4.49792 c 0.14613,0 0.26458,0.11854 0.26458,0.26459 v 2.64583 c 0,0.14605 -0.11845,0.26458 -0.26458,0.26458 h -4.49792 c -0.14613,0 -0.26458,-0.11853 -0.26458,-0.26458 z"
       id="path4185" />
    <path
       inkscape:connector-curvature="0"
       style="fill:#fefefe;stroke-width:0.26458332"
       d="m 121.10357,122.82857 h -0.52917 v 0.52917 h 0.52917 z"
       id="path4187" />
    <path
       inkscape:connector-curvature="0"
       style="fill:#fefefe;stroke-width:0.26458332"
       d="m 121.89732,122.82857 h -0.52917 v 0.52917 h 0.52917 z"
       id="path4189" />
    <path
       inkscape:connector-curvature="0"
       style="fill:#fefefe;stroke-width:0.26458332"
       d="m 122.1619,122.82857 h 0.52917 v 0.52917 h -0.52917 z"
       id="path4191" />
    <path
       inkscape:connector-curvature="0"
       style="fill:#fefefe;stroke-width:0.26458332"
       d="m 123.48482,122.82857 h -0.52917 v 0.52917 h 0.52917 z"
       id="path4193" />
    <path
       inkscape:connector-curvature="0"
       style="fill:#fefefe;stroke-width:0.26458332"
       d="m 123.7494,122.82857 h 0.52917 v 0.52917 h -0.52917 z"
       id="path4195" />
    <path
       inkscape:connector-curvature="0"
       style="fill:#fefefe;stroke-width:0.26458332"
       d="m 122.1619,124.15149 v -0.52917 h -0.52916 v 0.52917 z"
       id="path4197" />
    <path
       inkscape:connector-curvature="0"
       style="fill:#fefefe;stroke-width:0.26458332"
       d="m 120.5744,123.62232 h 0.79375 v 0.52917 h -0.79375 z"
       id="path4199" />
    <path
       inkscape:connector-curvature="0"
       style="fill:#fefefe;stroke-width:0.26458332"
       d="m 124.54315,124.94524 v -0.52917 h -3.175 v 0.52917 z"
       id="path4201" />
    <path
       inkscape:connector-curvature="0"
       style="fill:#fefefe;stroke-width:0.26458332"
       d="m 120.5744,124.41607 h 0.52917 v 0.52917 h -0.52917 z"
       id="path4203" />
    <path
       inkscape:connector-curvature="0"
       style="fill:#fefefe;stroke-width:0.26458332"
       d="m 122.95565,124.15149 v -0.52917 h -0.52916 v 0.52917 z"
       id="path4205" />
    <path
       inkscape:connector-curvature="0"
       style="fill:#fefefe;stroke-width:0.26458332"
       d="m 123.7494,123.62232 v 0.52917 h -0.52916 v -0.52917 z"
       id="path4207" />
    <path
       inkscape:connector-curvature="0"
       style="fill:#fefefe;stroke-width:0.26458332"
       d="m 124.54315,124.15149 v -0.52917 h -0.52916 v 0.52917 z"
       id="path4209" />
    <path
       inkscape:connector-curvature="0"
       style="fill:#585858;stroke-width:0.26458332"
       d="m 125.07232,122.23405 0.82637,0.82656 0.49655,-0.49662 -1.8491,-1.85209 v 0.003 l -0.003,-0.003 v 4.47517 c -0.25159,-0.15108 -0.57425,-0.24183 -0.92604,-0.24183 -0.8037,0 -1.45521,0.47387 -1.45521,1.05833 0,0.58447 0.65151,1.05833 1.45521,1.05833 0.8037,0 1.45521,-0.47386 1.45521,-1.05833 z"
       id="path4211" />
  </g>
</svg>
