<svg width="52" height="312" viewBox="0 0 52 312" fill="none" xmlns="http://www.w3.org/2000/svg">
<path d="M10 4H4C3.44772 4 3 4.44772 3 5V11C3 11.5523 3.44772 12 4 12H10C10.5523 12 11 11.5523 11 11V5C11 4.44772 10.5523 4 10 4Z" fill="#A3DCE0"/>
<path d="M19 4H13C12.4477 4 12 4.44772 12 5V11C12 11.5523 12.4477 12 13 12H19C19.5523 12 20 11.5523 20 11V5C20 4.44772 19.5523 4 19 4Z" fill="#BCDD9C"/>
<path d="M13 13H7C6.44772 13 6 13.4477 6 14V20C6 20.5523 6.44772 21 7 21H13C13.5523 21 14 20.5523 14 20V14C14 13.4477 13.5523 13 13 13Z" fill="#F4B3C2"/>
<path d="M22 13H16C15.4477 13 15 13.4477 15 14V20C15 20.5523 15.4477 21 16 21H22C22.5523 21 23 20.5523 23 20V14C23 13.4477 22.5523 13 22 13Z" fill="#FDCF8C"/>
<path d="M9.84692 135.816C9.9356 135.343 10.3486 135 10.8298 135H18.17C18.6512 135 19.0641 135.343 19.1528 135.816L21.7778 149.816C21.785 149.854 21.79 149.892 21.7927 149.93C21.8336 150.5 21.382 151 20.795 151H18.2634L14.2635 147H20.2325L18.17 136H10.8298L9.6351 142.372L8.77832 141.515L9.84692 135.816Z" fill="#5B5B5B"/>
<path d="M8.10853 145.088L8.96531 145.944L8.76739 147H10.0209L14.0209 151H8.20489C7.57875 151 7.10663 150.431 7.22202 149.816L8.10853 145.088Z" fill="#5B5B5B"/>
<path d="M2 137.565L2.70711 136.858L4.12132 138.272L4.82843 137.565L6.94975 139.686L6.24264 140.393L16.8492 151L16.1421 151.707L5.53553 141.1L4.82843 141.808L2.70711 139.686L3.41421 138.979L2 137.565Z" fill="#5B5B5B"/>
<path d="M22 31C22 30.8644 21.973 30.7351 21.9241 30.6172C21.8228 30.3728 21.6272 30.1772 21.3828 30.0759C21.2649 30.027 21.1356 30 21 30H20V31H21V32H22V31Z" fill="#5B5B5B"/>
<path d="M4.07588 46.3828C4.17725 46.6272 4.37277 46.8228 4.61721 46.9241C4.73512 46.973 4.86441 47 5 47H6V46H5V45H4V46C4 46.1356 4.02699 46.2649 4.07588 46.3828Z" fill="#5B5B5B"/>
<path d="M21.3828 46.9241C21.2649 46.973 21.1356 47 21 47H20V46H21V45H22V46C22 46.1356 21.973 46.2649 21.9241 46.3828C21.8228 46.6272 21.6272 46.8228 21.3828 46.9241Z" fill="#5B5B5B"/>
<path d="M5 30C4.86441 30 4.73512 30.027 4.61721 30.0759C4.37277 30.1772 4.17725 30.3728 4.07588 30.6172C4.02699 30.7351 4 30.8644 4 31V32H5V31H6V30H5Z" fill="#5B5B5B"/>
<path d="M5 43.1875H4V41.3125H5V43.1875Z" fill="#5B5B5B"/>
<path d="M4 39.4375H5V37.5625H4V39.4375Z" fill="#5B5B5B"/>
<path d="M5 35.6875H4V33.8125H5V35.6875Z" fill="#5B5B5B"/>
<path d="M8 30V31H10V30H8Z" fill="#5B5B5B"/>
<path d="M12 31V30H14V31H12Z" fill="#5B5B5B"/>
<path d="M16 30V31H18V30H16Z" fill="#5B5B5B"/>
<path d="M21 33.8125H22V35.6875H21V33.8125Z" fill="#5B5B5B"/>
<path d="M22 37.5625H21V39.4375H22V37.5625Z" fill="#5B5B5B"/>
<path d="M21 41.3125H22V43.1875H21V41.3125Z" fill="#5B5B5B"/>
<path d="M18 47V46H16V47H18Z" fill="#5B5B5B"/>
<path d="M14 46V47H12V46H14Z" fill="#5B5B5B"/>
<path d="M10 47V46H8V47H10Z" fill="#5B5B5B"/>
<path fill-rule="evenodd" clip-rule="evenodd" d="M12.3735 34H13.6506L17 43H15.7349L14.7831 40.2444H11.1807L10.2048 43H9L12.3735 34ZM11.506 39.2963H14.4458L12.988 35.1376L11.506 39.2963Z" fill="#5B5B5B"/>
<path d="M14.1386 57H11.9036L6 72H8.10843L9.81627 67.4073H16.1205L17.7861 72H20L14.1386 57ZM15.5301 65.8272H10.3855L12.9789 58.8961L15.5301 65.8272Z" fill="#5B5B5B"/>
<path fill-rule="evenodd" clip-rule="evenodd" d="M10.378 84.3333C10.2906 84.0768 10.0296 83.9219 9.76264 83.9682L9.59175 82.983C10.3436 82.8526 11.0786 83.2886 11.3246 84.0109L11.7984 85.4022L11.974 82.4364C12.0196 81.6659 12.6279 81.0478 13.3976 80.9898C14.2292 80.9273 14.9598 81.537 15.0469 82.3664L15.1504 83.3532L15.186 83.2018C15.357 82.473 16.0238 81.9701 16.7715 82.006C17.6148 82.0465 18.271 82.7535 18.2488 83.5974L18.1884 85.8829C18.5315 85.3 19.2164 85.001 19.8833 85.1554C20.7222 85.3496 21.2449 86.187 21.0507 87.0259L20.0002 91.5642V94.8544L19.9873 94.8804C19.7919 97.7409 17.4101 100 14.5002 100C12.1647 100 10.1715 98.5454 9.37322 96.4948L9.33449 96.456L8.69818 95.5016C8.57001 95.3939 8.45274 95.2701 8.34859 95.1312L5.48677 91.3146C4.99294 90.656 5.09269 89.7277 5.71514 89.189C6.28553 88.6954 7.12658 88.6781 7.7168 89.1478L9.05257 90.2107L8.31973 84.7158C8.20964 83.8903 8.77123 83.1253 9.59175 82.983L9.76264 83.9682C9.47128 84.0187 9.27186 84.2905 9.31095 84.5836L10.3474 92.3549C10.3499 92.3735 10.3527 92.3919 10.356 92.4102C10.3567 92.4142 10.3574 92.4182 10.3581 92.4222C10.3599 92.4319 10.3618 92.4415 10.3638 92.451L10.3468 92.4466L10.3068 92.4867L7.09412 89.9303C6.88046 89.7602 6.57599 89.7665 6.3695 89.9452C6.14417 90.1402 6.10806 90.4763 6.28683 90.7147L9.14865 94.5313C9.23418 94.6453 9.33231 94.7376 9.43844 94.8093L10.1116 95.8189L10.2368 95.9442C10.8384 97.7213 12.5199 99.0005 14.5002 99.0005C16.9449 99.0005 18.9343 97.051 18.9986 94.6217L19.0002 94.6184V91.5005L18.9887 91.4998L20.0764 86.8003C20.1461 86.4995 19.9587 86.1992 19.6578 86.1295C19.4059 86.0712 19.1469 86.1934 19.0315 86.4247L17.0406 90.415C17.061 90.3306 17.073 90.2417 17.0755 90.1485L17.2491 83.571C17.257 83.2708 17.0236 83.0193 16.7236 83.0049C16.4576 82.9921 16.2204 83.171 16.1595 83.4303L14.7731 89.3375L14.0523 82.4709C14.0217 82.1794 13.7649 81.965 13.4726 81.987C13.2021 82.0074 12.9883 82.2246 12.9722 82.4955L12.5014 90.4511L12.5005 90.4681L12.4722 90.4822L10.378 84.3333Z" fill="#9A9A9A"/>
<path d="M2 112C2 111.448 2.44772 111 3 111H20C20.5523 111 21 111.448 21 112V122C21 122.552 20.5523 123 20 123H3C2.44771 123 2 122.552 2 122V112Z" fill="#A8A8A8"/>
<path d="M6 113H4V115H6V113Z" fill="#FEFEFE"/>
<path d="M9 113H7V115H9V113Z" fill="#FEFEFE"/>
<path d="M10 113H12V115H10V113Z" fill="#FEFEFE"/>
<path d="M15 113H13V115H15V113Z" fill="#FEFEFE"/>
<path d="M16 113H18V115H16V113Z" fill="#FEFEFE"/>
<path d="M10 118V116H8V118H10Z" fill="#FEFEFE"/>
<path d="M4 116H7V118H4V116Z" fill="#FEFEFE"/>
<path d="M19 121V119H7V121H19Z" fill="#FEFEFE"/>
<path d="M4 119H6V121H4V119Z" fill="#FEFEFE"/>
<path d="M13 118V116H11V118H13Z" fill="#FEFEFE"/>
<path d="M16 116V118H14V116H16Z" fill="#FEFEFE"/>
<path d="M19 118V116H17V118H19Z" fill="#FEFEFE"/>
<path d="M21 110.753L24.1233 113.877L26 112L19.0113 105V105.011L19 105V121.914C18.0491 121.343 16.8296 121 15.5 121C12.4624 121 10 122.791 10 125C10 127.209 12.4624 129 15.5 129C18.5376 129 21 127.209 21 125V110.753Z" fill="#585858"/>
<path d="M16.5 164C17.3284 164 18 163.328 18 162.5C18 161.672 17.3284 161 16.5 161C15.6716 161 15 161.672 15 162.5C15 163.328 15.6716 164 16.5 164Z" fill="#5B5B5B"/>
<path fill-rule="evenodd" clip-rule="evenodd" d="M16.5 167C12.3579 167 9 162.5 9 162.5C9 162.5 12.3579 158 16.5 158C20.6421 158 24 162.5 24 162.5C24 162.5 20.6421 167 16.5 167ZM10.3328 162.534L10.3021 162.5L10.3328 162.466C10.6885 162.07 11.2026 161.544 11.8349 161.02C13.1277 159.948 14.7771 159 16.5 159C14.567 159 13 160.567 13 162.5C13 164.433 14.567 166 16.5 166C14.7771 166 13.1277 165.052 11.8349 163.98C11.2026 163.456 10.6885 162.93 10.3328 162.534ZM16.5 166C18.2229 166 19.8723 165.052 21.1651 163.98C21.7974 163.456 22.3115 162.93 22.6672 162.534L22.6979 162.5L22.6672 162.466C22.3115 162.07 21.7974 161.544 21.1651 161.02C19.8723 159.948 18.2229 159 16.5 159C18.433 159 20 160.567 20 162.5C20 164.433 18.433 166 16.5 166ZM16.5 165C17.8807 165 19 163.881 19 162.5C19 161.119 17.8807 160 16.5 160C15.1193 160 14 161.119 14 162.5C14 163.881 15.1193 165 16.5 165Z" fill="#5B5B5B"/>
<path fill-rule="evenodd" clip-rule="evenodd" d="M3.28565 173.743C3.28505 174.067 3.44153 174.371 3.70549 174.559C3.96945 174.747 4.30815 174.796 4.61424 174.689L6.50318 174.032L7.80693 177.78C7.9884 178.301 8.55837 178.577 9.07999 178.395L10.0245 178.067C10.275 177.98 10.4806 177.797 10.5961 177.558C10.7116 177.319 10.7275 177.044 10.6404 176.794L9.33661 173.046L11.2256 172.389C11.5316 172.283 11.7671 172.035 11.8574 171.723C11.9477 171.412 11.8815 171.076 11.6799 170.823L5.08834 162.528C4.82397 162.195 4.3782 162.066 3.97685 162.206C3.57551 162.345 3.30624 162.723 3.30544 163.148L3.28565 173.743ZM8.7514 177.451L7.11907 172.759L4.28565 173.745L4.30544 163.15L10.897 171.445L8.06355 172.43L9.69587 177.122L8.7514 177.451Z" fill="#5B5B5B"/>
<path d="M22 188C22 187.864 21.973 187.735 21.9241 187.617C21.8228 187.373 21.6272 187.177 21.3828 187.076C21.2649 187.027 21.1356 187 21 187H20V188H21V189H22V188Z" fill="#5B5B5B"/>
<path d="M4.07588 203.383C4.17725 203.627 4.37277 203.823 4.61721 203.924C4.73512 203.973 4.86441 204 5 204H6V203H5V202H4V203C4 203.136 4.02699 203.265 4.07588 203.383Z" fill="#5B5B5B"/>
<path d="M21.3828 203.924C21.2649 203.973 21.1356 204 21 204H20V203H21V202H22V203C22 203.136 21.973 203.265 21.9241 203.383C21.8228 203.627 21.6272 203.823 21.3828 203.924Z" fill="#5B5B5B"/>
<path d="M5 187C4.86441 187 4.73512 187.027 4.61721 187.076C4.37277 187.177 4.17725 187.373 4.07588 187.617C4.02699 187.735 4 187.864 4 188V189H5V188H6V187H5Z" fill="#5B5B5B"/>
<path d="M5 200.188H4V198.312H5V200.188Z" fill="#5B5B5B"/>
<path d="M4 196.438H5V194.562H4V196.438Z" fill="#5B5B5B"/>
<path d="M5 192.688H4V190.812H5V192.688Z" fill="#5B5B5B"/>
<path d="M8 187V188H10V187H8Z" fill="#5B5B5B"/>
<path d="M12 188V187H14V188H12Z" fill="#5B5B5B"/>
<path d="M16 187V188H18V187H16Z" fill="#5B5B5B"/>
<path d="M21 190.812H22V192.688H21V190.812Z" fill="#5B5B5B"/>
<path d="M22 194.562H21V196.438H22V194.562Z" fill="#5B5B5B"/>
<path d="M21 198.312H22V200.188H21V198.312Z" fill="#5B5B5B"/>
<path d="M18 204V203H16V204H18Z" fill="#5B5B5B"/>
<path d="M14 203V204H12V203H14Z" fill="#5B5B5B"/>
<path d="M10 204V203H8V204H10Z" fill="#5B5B5B"/>
<path fill-rule="evenodd" clip-rule="evenodd" d="M12 196V202H20V196H12ZM11 194C10.4477 194 10 194.448 10 195V203C10 203.552 10.4477 204 11 204H21C21.5523 204 22 203.552 22 203V195C22 194.448 21.5523 194 21 194H11Z" fill="#A8A8A8"/>
<path d="M22 213C22 212.864 21.973 212.735 21.9241 212.617C21.8228 212.373 21.6272 212.177 21.3828 212.076C21.2649 212.027 21.1356 212 21 212H20V213H21V214H22V213Z" fill="#5B5B5B"/>
<path d="M4.07588 228.383C4.17725 228.627 4.37277 228.823 4.61721 228.924C4.73512 228.973 4.86441 229 5 229V227H4V228C4 228.136 4.02699 228.265 4.07588 228.383Z" fill="#5B5B5B"/>
<path d="M21 229C21.1356 229 21.2649 228.973 21.3828 228.924C21.6272 228.823 21.8228 228.627 21.9241 228.383C21.973 228.265 22 228.136 22 228V227H21V229Z" fill="#5B5B5B"/>
<path d="M5 212C4.86441 212 4.73512 212.027 4.61721 212.076C4.37277 212.177 4.17725 212.373 4.07588 212.617C4.02699 212.735 4 212.864 4 213V214H5V213H6V212H5Z" fill="#5B5B5B"/>
<path d="M4 225.188H5V223.312H4V225.188Z" fill="#5B5B5B"/>
<path d="M4 221.438H5V219.562H4V221.438Z" fill="#5B5B5B"/>
<path d="M4 217.688H5V215.812H4V217.688Z" fill="#5B5B5B"/>
<path d="M8 212V213H10V212H8Z" fill="#5B5B5B"/>
<path d="M12 212V213H14V212H12Z" fill="#5B5B5B"/>
<path d="M16 212V213H18V212H16Z" fill="#5B5B5B"/>
<path d="M22 215.812H21V217.688H22V215.812Z" fill="#5B5B5B"/>
<path d="M22 219.562H21V221.438H22V219.562Z" fill="#5B5B5B"/>
<path d="M22 223.312H21V225.188H22V223.312Z" fill="#5B5B5B"/>
<path fill-rule="evenodd" clip-rule="evenodd" d="M13.6506 216H12.3735L9 225H10.2048L11.1807 222.244H14.7831L15.7349 225H17L13.6506 216ZM14.4458 221.296H11.506L12.988 217.138L14.4458 221.296Z" fill="#5B5B5B"/>
<path fill-rule="evenodd" clip-rule="evenodd" d="M9.00004 226.293L11.0001 228.293L13.0001 226.293L15.0001 228.293L17.0001 226.293L19.3537 228.646L18.6466 229.354L17.0001 227.707L15.0001 229.707L13.0001 227.707L11.0001 229.707L9.00004 227.707L7.35359 229.354L6.64648 228.646L9.00004 226.293Z" fill="#CE4E4E"/>
<path d="M11.5 242.5C11.5 242.5 12.5 238.5 16.5 238.5C20.5 238.5 21.5 241 21.5 243.5C21.5 248 17 249 16.5 250.5C16.5 252.313 17.2573 255.5 14 255.5C11 255.5 11 253 11 253" stroke="#585858" stroke-linecap="round"/>
<path d="M19.5 244C19.5 244 20 240.5 17 240.5C13.5 240.5 13.5 244 13.5 244C13.5 246.5 15.5 245.812 15.5 247.5C15.5 249.5 13.5 249.5 13.5 249.5" stroke="#585858" stroke-linecap="round"/>
<path d="M7 242L12.03 247.03L10.6158 248.444L9 246.905V252.5C9 253.881 7.65685 255 6 255C4.34315 255 3 253.881 3 252.5C3 251.119 4.34315 250 6 250C6.35064 250 6.68722 250.05 7 250.142V242Z" fill="#5A5A5A"/>
<path d="M36 4H30C29.4477 4 29 4.44772 29 5V11C29 11.5523 29.4477 12 30 12H36C36.5523 12 37 11.5523 37 11V5C37 4.44772 36.5523 4 36 4Z" fill="#A3DCE0"/>
<path d="M45 4H39C38.4477 4 38 4.44772 38 5V11C38 11.5523 38.4477 12 39 12H45C45.5523 12 46 11.5523 46 11V5C46 4.44772 45.5523 4 45 4Z" fill="#BCDD9C"/>
<path d="M39 13H33C32.4477 13 32 13.4477 32 14V20C32 20.5523 32.4477 21 33 21H39C39.5523 21 40 20.5523 40 20V14C40 13.4477 39.5523 13 39 13Z" fill="#F4B3C2"/>
<path d="M42 13C41.4477 13 41 13.4477 41 14V20C41 20.5523 41.4477 21 42 21H42.0224C42.275 18.1967 44.631 16 47.5 16C48.02 16 48.5232 16.0722 49 16.207V14C49 13.4477 48.5523 13 48 13H42Z" fill="#FDCF8C"/>
<path d="M35.8469 135.816C35.9356 135.343 36.3486 135 36.8298 135H44.17C44.6512 135 45.0641 135.343 45.1528 135.816L47.0656 146.017C46.7274 146.043 46.3979 146.1 46.0797 146.185L44.17 136H36.8298L35.6351 142.372L34.7783 141.515L35.8469 135.816Z" fill="#5B5B5B"/>
<path d="M44.337 147H40.2637L42.4904 149.227C42.8981 148.33 43.5396 147.562 44.337 147Z" fill="#5B5B5B"/>
<path d="M42.1346 150.285L32.2426 140.393L32.9497 139.686L30.8284 137.565L30.1213 138.272L28.7071 136.858L28 137.565L29.4142 138.979L28.7071 139.686L30.8284 141.808L31.5355 141.1L42.0004 151.565C42.0001 151.544 42 151.522 42 151.5C42 151.083 42.0465 150.676 42.1346 150.285Z" fill="#5B5B5B"/>
<path d="M34.1086 145.088L34.9653 145.944L34.7674 147H36.0209L40.0209 151H34.2049C33.5788 151 33.1066 150.431 33.222 149.816L34.1086 145.088Z" fill="#5B5B5B"/>
<path d="M48 31C48 30.8644 47.973 30.7351 47.9241 30.6172C47.8228 30.3728 47.6272 30.1772 47.3828 30.0759C47.2649 30.027 47.1356 30 47 30H46V31H47V32H48V31Z" fill="#5B5B5B"/>
<path d="M30.0759 46.3828C30.1772 46.6272 30.3728 46.8228 30.6172 46.9241C30.7351 46.973 30.8644 47 31 47H32V46H31V45H30V46C30 46.1356 30.027 46.2649 30.0759 46.3828Z" fill="#5B5B5B"/>
<path d="M31 30C30.8644 30 30.7351 30.027 30.6172 30.0759C30.3728 30.1772 30.1772 30.3728 30.0759 30.6172C30.027 30.7351 30 30.8644 30 31V32H31V31H32V30H31Z" fill="#5B5B5B"/>
<path d="M30 43.1875H31V41.3125H30V43.1875Z" fill="#5B5B5B"/>
<path d="M30 39.4375H31V37.5625H30V39.4375Z" fill="#5B5B5B"/>
<path d="M30 35.6875H31V33.8125H30V35.6875Z" fill="#5B5B5B"/>
<path d="M34 30V31H36V30H34Z" fill="#5B5B5B"/>
<path d="M38 30V31H40V30H38Z" fill="#5B5B5B"/>
<path d="M42 30V31H44V30H42Z" fill="#5B5B5B"/>
<path d="M48 33.8125H47V35.6875H48V33.8125Z" fill="#5B5B5B"/>
<path d="M48 37.5625H47V39.4375H48V37.5625Z" fill="#5B5B5B"/>
<path d="M48 41.3125H47V42.0224C47.1647 42.0076 47.3315 42 47.5 42C47.6685 42 47.8353 42.0076 48 42.0224V41.3125Z" fill="#5B5B5B"/>
<path d="M40 47V46H38V47H40Z" fill="#5B5B5B"/>
<path d="M36 47V46H34V47H36Z" fill="#5B5B5B"/>
<path fill-rule="evenodd" clip-rule="evenodd" d="M39.6506 34H38.3735L35 43H36.2048L37.1807 40.2444H40.7831L41.7349 43H43L39.6506 34ZM40.4458 39.2963H37.506L38.988 35.1376L40.4458 39.2963Z" fill="#5B5B5B"/>
<path fill-rule="evenodd" clip-rule="evenodd" d="M37.9036 57H40.1386L44.7292 68.7479C44.1047 69.1128 43.5587 69.5972 43.1224 70.1699L42.1205 67.4073H35.8163L34.1084 72H32L37.9036 57ZM36.3855 65.8272H41.5301L38.9789 58.8961L36.3855 65.8272Z" fill="#5B5B5B"/>
<path d="M35.7627 83.9682C36.0296 83.9219 36.2906 84.0768 36.378 84.3333L38.4722 90.4822L38.5005 90.4681L38.5014 90.4511L38.9722 82.4955C38.9883 82.2246 39.2021 82.0074 39.4726 81.987C39.7649 81.965 40.0217 82.1794 40.0523 82.4709L40.7731 89.3375L42.1595 83.4303C42.2204 83.171 42.4576 82.9921 42.7236 83.0049C43.0236 83.0193 43.257 83.2708 43.2491 83.571L43.0755 90.1485C43.073 90.2417 43.061 90.3306 43.0406 90.415L45.0315 86.4247C45.1469 86.1934 45.4059 86.0712 45.6578 86.1295C45.9587 86.1992 46.1461 86.4995 46.0764 86.8003L44.9887 91.4998L45.0002 91.5005V94.6002C45.317 94.4383 45.6516 94.3061 46.0002 94.2075V91.5642L47.0507 87.0259C47.2449 86.187 46.7222 85.3496 45.8833 85.1554C45.2164 85.001 44.5315 85.3 44.1884 85.8829L44.2488 83.5974C44.271 82.7535 43.6148 82.0465 42.7715 82.006C42.0238 81.9701 41.357 82.473 41.186 83.2018L41.1504 83.3532L41.0469 82.3664C40.9598 81.537 40.2292 80.9273 39.3976 80.9898C38.6279 81.0478 38.0196 81.6659 37.974 82.4364L37.7984 85.4022L37.3246 84.0109C37.0786 83.2886 36.3436 82.8526 35.5918 82.983C34.7713 83.1253 34.2097 83.8903 34.3197 84.7158L35.0526 90.2107L33.7168 89.1478C33.1266 88.6781 32.2855 88.6954 31.7152 89.189C31.0927 89.7277 30.993 90.656 31.4868 91.3146L34.3486 95.1312C34.4528 95.2701 34.57 95.3939 34.6982 95.5016L35.3345 96.456L35.3732 96.4948C36.1715 98.5454 38.1647 100 40.5002 100C41.023 100 41.5287 99.9276 42.0078 99.7913C42.0027 99.695 42.0002 99.5981 42.0002 99.5005C42.0002 99.2372 42.0187 98.9782 42.0545 98.7247C41.57 98.903 41.0465 99.0005 40.5002 99.0005C38.5199 99.0005 36.8384 97.7213 36.2368 95.9442L36.1116 95.8189L35.4385 94.8093C35.3323 94.7376 35.2342 94.6453 35.1487 94.5313L32.2868 90.7147C32.1081 90.4763 32.1442 90.1402 32.3695 89.9452C32.576 89.7665 32.8805 89.7602 33.0941 89.9303L36.3068 92.4867L36.3468 92.4466L36.3638 92.451C36.3618 92.4415 36.3599 92.4319 36.3581 92.4222L36.356 92.4102C36.3527 92.3919 36.3499 92.3735 36.3474 92.3549L35.311 84.5836C35.2719 84.2905 35.4713 84.0187 35.7627 83.9682Z" fill="#9A9A9A"/>
<path d="M29 111C28.4477 111 28 111.448 28 112V122C28 122.552 28.4477 123 29 123H42.5997C43.4383 121.36 45.0763 120.196 47 120.022V112C47 111.448 46.5523 111 46 111H29Z" fill="#A8A8A8"/>
<path d="M30 113H32V115H30V113Z" fill="#FEFEFE"/>
<path d="M33 113H35V115H33V113Z" fill="#FEFEFE"/>
<path d="M36 113H38V115H36V113Z" fill="#FEFEFE"/>
<path d="M39 113H41V115H39V113Z" fill="#FEFEFE"/>
<path d="M42 113H44V115H42V113Z" fill="#FEFEFE"/>
<path d="M36 116V118H34V116H36Z" fill="#FEFEFE"/>
<path d="M30 116H33V118H30V116Z" fill="#FEFEFE"/>
<path d="M44.3369 121C44.5475 120.852 44.769 120.718 45 120.6V119H33V121H44.3369Z" fill="#FEFEFE"/>
<path d="M30 119H32V121H30V119Z" fill="#FEFEFE"/>
<path d="M39 116V118H37V116H39Z" fill="#FEFEFE"/>
<path d="M42 116V118H40V116H42Z" fill="#FEFEFE"/>
<path d="M45 116V118H43V116H45Z" fill="#FEFEFE"/>
<path d="M50.1233 113.877L47 110.753V120.022C46.2851 120.087 45.6096 120.288 45 120.6V105L45.0113 105.011V105L52 112L50.1233 113.877Z" fill="#585858"/>
<path d="M43.8526 121.383C43.1393 121.138 42.3417 121 41.5 121C38.4624 121 36 122.791 36 125C36 127.209 38.4624 129 41.5 129C42.063 129 42.6063 128.938 43.1178 128.824C42.4164 127.901 42 126.749 42 125.5C42 123.862 42.7162 122.391 43.8526 121.383Z" fill="#585858"/>
<path d="M42.5 164C43.3284 164 44 163.328 44 162.5C44 161.672 43.3284 161 42.5 161C41.6716 161 41 161.672 41 162.5C41 163.328 41.6716 164 42.5 164Z" fill="#5B5B5B"/>
<path fill-rule="evenodd" clip-rule="evenodd" d="M42.5 167C38.3579 167 35 162.5 35 162.5C35 162.5 38.3579 158 42.5 158C46.6421 158 50 162.5 50 162.5C50 162.5 46.6421 167 42.5 167ZM36.3328 162.534L36.3021 162.5L36.3328 162.466C36.6885 162.07 37.2026 161.544 37.8349 161.02C39.1277 159.948 40.7771 159 42.5 159C40.567 159 39 160.567 39 162.5C39 164.433 40.567 166 42.5 166C40.7771 166 39.1277 165.052 37.8349 163.98C37.2026 163.456 36.6885 162.93 36.3328 162.534ZM42.5 166C44.2229 166 45.8723 165.052 47.1651 163.98C47.7974 163.456 48.3115 162.93 48.6672 162.534L48.6979 162.5L48.6672 162.466C48.3115 162.07 47.7974 161.544 47.1651 161.02C45.8723 159.948 44.2229 159 42.5 159C44.433 159 46 160.567 46 162.5C46 164.433 44.433 166 42.5 166ZM42.5 165C43.8807 165 45 163.881 45 162.5C45 161.119 43.8807 160 42.5 160C41.1193 160 40 161.119 40 162.5C40 163.881 41.1193 165 42.5 165Z" fill="#5B5B5B"/>
<path fill-rule="evenodd" clip-rule="evenodd" d="M29.2861 173.743C29.2855 174.067 29.4419 174.371 29.7059 174.559C29.9699 174.747 30.3086 174.796 30.6146 174.689L32.5036 174.032L33.8073 177.78C33.9888 178.301 34.5588 178.577 35.0804 178.395L36.0249 178.067C36.2754 177.98 36.481 177.797 36.5965 177.558C36.712 177.319 36.7279 177.044 36.6408 176.794L35.337 173.046L37.226 172.389C37.532 172.283 37.7675 172.035 37.8578 171.723C37.9481 171.412 37.8819 171.076 37.6803 170.823L31.0888 162.528C30.8244 162.195 30.3786 162.066 29.9773 162.206C29.5759 162.345 29.3066 162.723 29.3059 163.148L29.2861 173.743ZM34.7518 177.451L33.1195 172.759L30.2861 173.745L30.3059 163.15L36.8974 171.445L34.064 172.43L35.6963 177.122L34.7518 177.451Z" fill="#5B5B5B"/>
<path d="M47.9241 187.617C47.973 187.735 48 187.864 48 188V189H47V188H46V187H47C47.1356 187 47.2649 187.027 47.3828 187.076C47.6272 187.177 47.8228 187.373 47.9241 187.617Z" fill="#5B5B5B"/>
<path d="M30.6172 203.924C30.3728 203.823 30.1772 203.627 30.0759 203.383C30.027 203.265 30 203.136 30 203V202H31V203H32V204H31C30.8644 204 30.7351 203.973 30.6172 203.924Z" fill="#5B5B5B"/>
<path d="M30.6172 187.076C30.7351 187.027 30.8644 187 31 187H32V188H31V189H30V188C30 187.864 30.027 187.735 30.0759 187.617C30.1772 187.373 30.3728 187.177 30.6172 187.076Z" fill="#5B5B5B"/>
<path d="M31 200.188H30V198.312H31V200.188Z" fill="#5B5B5B"/>
<path d="M31 196.438H30V194.562H31V196.438Z" fill="#5B5B5B"/>
<path d="M31 192.688H30V190.812H31V192.688Z" fill="#5B5B5B"/>
<path d="M34 188V187H36V188H34Z" fill="#5B5B5B"/>
<path d="M38 188V187H40V188H38Z" fill="#5B5B5B"/>
<path d="M42 188V187H44V188H42Z" fill="#5B5B5B"/>
<path d="M47 190.812H48V192.688H47V190.812Z" fill="#5B5B5B"/>
<path d="M47 194.562H48V196.438H47V194.562Z" fill="#5B5B5B"/>
<path d="M42.0224 203H42V203.5V204H42.0224C42.0076 203.835 42 203.669 42 203.5C42 203.331 42.0076 203.165 42.0224 203Z" fill="#5B5B5B"/>
<path d="M40 203V204H38V203H40Z" fill="#5B5B5B"/>
<path d="M36 203V204H34V203H36Z" fill="#5B5B5B"/>
<path d="M38 202V196H46V198.207C46.4768 198.072 46.98 198 47.5 198C47.6685 198 47.8353 198.008 48 198.022V195C48 194.448 47.5523 194 47 194H37C36.4477 194 36 194.448 36 195V203C36 203.552 36.4477 204 37 204H42.0224C42.0076 203.835 42 203.669 42 203.5C42 202.98 42.0722 202.477 42.207 202H38Z" fill="#A8A8A8"/>
<path d="M47.9241 212.617C47.973 212.735 48 212.864 48 213V214H47V213H46V212H47C47.1356 212 47.2649 212.027 47.3828 212.076C47.6272 212.177 47.8228 212.373 47.9241 212.617Z" fill="#5B5B5B"/>
<path d="M30.6172 228.924C30.3728 228.823 30.1772 228.627 30.0759 228.383C30.027 228.265 30 228.136 30 228V227H31V229C30.8644 229 30.7351 228.973 30.6172 228.924Z" fill="#5B5B5B"/>
<path d="M30.6172 212.076C30.7351 212.027 30.8644 212 31 212H32V213H31V214H30V213C30 212.864 30.027 212.735 30.0759 212.617C30.1772 212.373 30.3728 212.177 30.6172 212.076Z" fill="#5B5B5B"/>
<path d="M30 225.188H31V223.312H30V225.188Z" fill="#5B5B5B"/>
<path d="M31 221.438H30V219.562H31V221.438Z" fill="#5B5B5B"/>
<path d="M30 217.688H31V215.812H30V217.688Z" fill="#5B5B5B"/>
<path d="M34 213V212H36V213H34Z" fill="#5B5B5B"/>
<path d="M38 212V213H40V212H38Z" fill="#5B5B5B"/>
<path d="M42 213V212H44V213H42Z" fill="#5B5B5B"/>
<path d="M48 215.812H47V217.688H48V215.812Z" fill="#5B5B5B"/>
<path d="M47 219.562H48V221.438H47V219.562Z" fill="#5B5B5B"/>
<path d="M48 223.312H47V224.022C47.1647 224.008 47.3315 224 47.5 224C47.6685 224 47.8353 224.008 48 224.022V223.312Z" fill="#5B5B5B"/>
<path fill-rule="evenodd" clip-rule="evenodd" d="M38.3735 216H39.6506L43 225H41.7349L40.7831 222.244H37.1807L36.2048 225H35L38.3735 216ZM37.506 221.296H40.4458L38.988 217.138L37.506 221.296Z" fill="#5B5B5B"/>
<path d="M43.0183 226.311L43 226.293L41 228.293L39 226.293L37 228.293L35 226.293L32.6465 228.646L33.3536 229.354L35 227.707L37 229.707L39 227.707L41 229.707L42.0668 228.64C42.2015 227.782 42.5349 226.989 43.0183 226.311Z" fill="#CE4E4E"/>
<path d="M37.5 242.5C37.5 242.5 38.5 238.5 42.5 238.5C46.5 238.5 47.5 241 47.5 243.5C47.5 248 43 249 42.5 250.5C42.5 252.313 43.2573 255.5 40 255.5C37 255.5 37 253 37 253" stroke="#585858" stroke-linecap="round"/>
<path d="M45.5 244C45.5 244 46 240.5 43 240.5C39.5 240.5 39.5 244 39.5 244C39.5 246.5 41.5 245.812 41.5 247.5C41.5 249.5 39.5 249.5 39.5 249.5" stroke="#585858" stroke-linecap="round"/>
<path d="M33 242L38.03 247.03L36.6158 248.444L35 246.905V252.5C35 253.881 33.6569 255 32 255C30.3431 255 29 253.881 29 252.5C29 251.119 30.3431 250 32 250C32.3506 250 32.6872 250.05 33 250.142V242Z" fill="#5A5A5A"/>
<path d="M47.5 26C49.9853 26 52 23.9853 52 21.5C52 19.0147 49.9853 17 47.5 17C45.0147 17 43 19.0147 43 21.5C43 23.9853 45.0147 26 47.5 26Z" fill="#D02B2B"/>
<path fill-rule="evenodd" clip-rule="evenodd" d="M46.7929 21.5001L45.1465 19.8536L45.8536 19.1465L47.5 20.793L49.1465 19.1465L49.8536 19.8536L48.2071 21.5001L49.8536 23.1465L49.1465 23.8536L47.5 22.2072L45.8536 23.8536L45.1465 23.1465L46.7929 21.5001Z" fill="white"/>
<path d="M47.5 52C49.9853 52 52 49.9853 52 47.5C52 45.0147 49.9853 43 47.5 43C45.0147 43 43 45.0147 43 47.5C43 49.9853 45.0147 52 47.5 52Z" fill="#D02B2B"/>
<path fill-rule="evenodd" clip-rule="evenodd" d="M46.7929 47.5001L45.1465 45.8536L45.8536 45.1465L47.5 46.793L49.1465 45.1465L49.8536 45.8536L48.2071 47.5001L49.8536 49.1465L49.1465 49.8536L47.5 48.2072L45.8536 49.8536L45.1465 49.1465L46.7929 47.5001Z" fill="white"/>
<path d="M47.5 78C49.9853 78 52 75.9853 52 73.5C52 71.0147 49.9853 69 47.5 69C45.0147 69 43 71.0147 43 73.5C43 75.9853 45.0147 78 47.5 78Z" fill="#D02B2B"/>
<path fill-rule="evenodd" clip-rule="evenodd" d="M46.7929 73.5001L45.1465 71.8536L45.8536 71.1465L47.5 72.793L49.1465 71.1465L49.8536 71.8536L48.2071 73.5001L49.8536 75.1465L49.1465 75.8536L47.5 74.2072L45.8536 75.8536L45.1465 75.1465L46.7929 73.5001Z" fill="white"/>
<path d="M47.5 104C49.9853 104 52 101.985 52 99.5C52 97.0147 49.9853 95 47.5 95C45.0147 95 43 97.0147 43 99.5C43 101.985 45.0147 104 47.5 104Z" fill="#D02B2B"/>
<path fill-rule="evenodd" clip-rule="evenodd" d="M46.7929 99.5001L45.1465 97.8536L45.8536 97.1465L47.5 98.793L49.1465 97.1465L49.8536 97.8536L48.2071 99.5001L49.8536 101.146L49.1465 101.854L47.5 100.207L45.8536 101.854L45.1465 101.146L46.7929 99.5001Z" fill="white"/>
<path d="M47.5 130C49.9853 130 52 127.985 52 125.5C52 123.015 49.9853 121 47.5 121C45.0147 121 43 123.015 43 125.5C43 127.985 45.0147 130 47.5 130Z" fill="#D02B2B"/>
<path fill-rule="evenodd" clip-rule="evenodd" d="M46.7929 125.5L45.1465 123.854L45.8536 123.146L47.5 124.793L49.1465 123.146L49.8536 123.854L48.2071 125.5L49.8536 127.146L49.1465 127.854L47.5 126.207L45.8536 127.854L45.1465 127.146L46.7929 125.5Z" fill="white"/>
<path d="M47.5 156C49.9853 156 52 153.985 52 151.5C52 149.015 49.9853 147 47.5 147C45.0147 147 43 149.015 43 151.5C43 153.985 45.0147 156 47.5 156Z" fill="#D02B2B"/>
<path fill-rule="evenodd" clip-rule="evenodd" d="M46.7929 151.5L45.1465 149.854L45.8536 149.146L47.5 150.793L49.1465 149.146L49.8536 149.854L48.2071 151.5L49.8536 153.146L49.1465 153.854L47.5 152.207L45.8536 153.854L45.1465 153.146L46.7929 151.5Z" fill="white"/>
<path d="M47.5 182C49.9853 182 52 179.985 52 177.5C52 175.015 49.9853 173 47.5 173C45.0147 173 43 175.015 43 177.5C43 179.985 45.0147 182 47.5 182Z" fill="#D02B2B"/>
<path fill-rule="evenodd" clip-rule="evenodd" d="M46.7929 177.5L45.1465 175.854L45.8536 175.146L47.5 176.793L49.1465 175.146L49.8536 175.854L48.2071 177.5L49.8536 179.146L49.1465 179.854L47.5 178.207L45.8536 179.854L45.1465 179.146L46.7929 177.5Z" fill="white"/>
<path d="M47.5 208C49.9853 208 52 205.985 52 203.5C52 201.015 49.9853 199 47.5 199C45.0147 199 43 201.015 43 203.5C43 205.985 45.0147 208 47.5 208Z" fill="#D02B2B"/>
<path fill-rule="evenodd" clip-rule="evenodd" d="M46.7929 203.5L45.1465 201.854L45.8536 201.146L47.5 202.793L49.1465 201.146L49.8536 201.854L48.2071 203.5L49.8536 205.146L49.1465 205.854L47.5 204.207L45.8536 205.854L45.1465 205.146L46.7929 203.5Z" fill="white"/>
<path d="M47.5 260C49.9853 260 52 257.985 52 255.5C52 253.015 49.9853 251 47.5 251C45.0147 251 43 253.015 43 255.5C43 257.985 45.0147 260 47.5 260Z" fill="#D02B2B"/>
<path fill-rule="evenodd" clip-rule="evenodd" d="M46.7929 255.5L45.1465 253.854L45.8536 253.146L47.5 254.793L49.1465 253.146L49.8536 253.854L48.2071 255.5L49.8536 257.146L49.1465 257.854L47.5 256.207L45.8536 257.854L45.1465 257.146L46.7929 255.5Z" fill="white"/>
<path d="M47.5 234C49.9853 234 52 231.985 52 229.5C52 227.015 49.9853 225 47.5 225C45.0147 225 43 227.015 43 229.5C43 231.985 45.0147 234 47.5 234Z" fill="#D02B2B"/>
<path fill-rule="evenodd" clip-rule="evenodd" d="M46.7929 229.5L45.1465 227.854L45.8536 227.146L47.5 228.793L49.1465 227.146L49.8536 227.854L48.2071 229.5L49.8536 231.146L49.1465 231.854L47.5 230.207L45.8536 231.854L45.1465 231.146L46.7929 229.5Z" fill="white"/>
<path fill-rule="evenodd" clip-rule="evenodd" d="M15.201 278.423L14.6519 280H13.4282L15.9874 273.225H17.0436L19.6074 280H18.379L17.8253 278.423H15.201ZM17.495 277.473L16.5132 274.663L15.5314 277.473H17.495Z" fill="#5A5A5A"/>
<path fill-rule="evenodd" clip-rule="evenodd" d="M20.3536 261.354L18.675 263.032C22.2243 263.372 25 266.362 25 270C25 271.559 24.4904 272.999 23.6286 274.162C23.8696 274.898 24 275.684 24 276.5C24 280.642 20.6422 284 16.5 284C12.3579 284 9.00002 280.642 9.00002 276.5C9.00002 276.327 9.00589 276.155 9.01744 275.985C6.30082 275.812 3.97717 274.193 2.80798 271.89C2.2942 272.774 2 273.802 2 274.899C2 277.957 4.28821 280.481 7.24597 280.852L5.64642 279.253C5.45117 279.057 5.45117 278.741 5.64642 278.545C5.84174 278.35 6.15826 278.35 6.35358 278.545L8.85358 281.045C9.04883 281.241 9.04883 281.557 8.85358 281.753L6.35358 284.253C6.15827 284.448 5.84174 284.448 5.64642 284.253C5.45117 284.057 5.45117 283.741 5.64642 283.545L7.32501 281.867C3.7757 281.527 1 278.537 1 274.899C1 273.354 1.50074 271.925 2.34882 270.767C2.12224 270.052 2.00002 269.29 2.00002 268.5C2.00002 264.358 5.35788 261 9.50002 261C13.6422 261 17 264.358 17 268.5C17 268.673 16.9941 268.845 16.9826 269.015C19.678 269.186 21.9865 270.781 23.1644 273.056C23.6953 272.161 24 271.116 24 270C24 266.942 21.7118 264.418 18.7541 264.047L20.3536 265.646C20.5489 265.842 20.5489 266.158 20.3536 266.354C20.1583 266.549 19.8418 266.549 19.6465 266.354L17.1465 263.854C16.9512 263.658 16.9512 263.342 17.1465 263.146L19.6465 260.646C19.8418 260.451 20.1583 260.451 20.3536 260.646C20.5489 260.842 20.5489 261.158 20.3536 261.354ZM10.9097 271.5C10.54 271.319 10.2031 271.117 9.89726 270.904C10.4708 270.256 10.8911 269.586 11.1972 268.974C11.5273 268.313 11.7258 267.719 11.8422 267.286C11.8705 267.181 11.8941 267.085 11.9135 267H13V266H10V264H9.00002V266H6.00002V267H10.8836L10.8766 267.026C10.7742 267.407 10.5976 267.937 10.3028 268.526C10.0238 269.084 9.63982 269.694 9.11293 270.281C8.80094 270 8.53592 269.717 8.31488 269.453C8.01118 269.091 7.79246 268.766 7.6509 268.535C7.5802 268.419 7.52896 268.327 7.4962 268.265C7.47983 268.235 7.46808 268.212 7.46085 268.197L7.45337 268.182L7.45243 268.18C7.45243 268.18 7.45258 268.18 7.00001 268.393C6.54744 268.606 6.54761 268.606 6.54761 268.606L6.54828 268.607L6.54956 268.61L6.55341 268.618L6.5664 268.644C6.57211 268.656 6.57911 268.67 6.5874 268.686C6.59509 268.701 6.6039 268.717 6.61384 268.736C6.65514 268.813 6.71607 268.923 6.79777 269.056C6.96102 269.323 7.20808 269.689 7.54823 270.095C7.78421 270.377 8.06596 270.679 8.39659 270.982C7.93944 271.373 7.40379 271.739 6.77638 272.053L7.2236 272.947C7.9919 272.563 8.63857 272.109 9.18232 271.623C9.51386 271.864 9.88013 272.094 10.2829 272.304C10.4737 272.022 10.6832 271.753 10.9097 271.5ZM16.5 283C20.0899 283 23 280.09 23 276.5C23 272.91 20.0899 270 16.5 270C12.9102 270 10 272.91 10 276.5C10 280.09 12.9102 283 16.5 283Z" fill="#5A5A5A"/>
<path fill-rule="evenodd" clip-rule="evenodd" d="M41.201 278.423L40.6519 280H39.4282L41.9874 273.225H43.0436L45.6074 280H44.379L43.8253 278.423H41.201ZM43.495 277.473L42.5132 274.663L41.5314 277.473H43.495Z" fill="#8D8D8D"/>
<path fill-rule="evenodd" clip-rule="evenodd" d="M46.3536 261.354L44.675 263.032C48.2243 263.372 51 266.362 51 270C51 271.559 50.4904 272.999 49.6286 274.162C49.8696 274.898 50 275.684 50 276.5C50 280.642 46.6422 284 42.5 284C38.3579 284 35 280.642 35 276.5C35 276.327 35.0059 276.155 35.0174 275.985C32.3008 275.812 29.9772 274.193 28.808 271.89C28.2942 272.774 28 273.802 28 274.899C28 277.957 30.2882 280.481 33.246 280.852L31.6464 279.253C31.4512 279.057 31.4512 278.741 31.6464 278.545C31.8417 278.35 32.1583 278.35 32.3536 278.545L34.8536 281.045C35.0488 281.241 35.0488 281.557 34.8536 281.753L32.3536 284.253C32.1583 284.448 31.8417 284.448 31.6464 284.253C31.4512 284.057 31.4512 283.741 31.6464 283.545L33.325 281.867C29.7757 281.527 27 278.537 27 274.899C27 273.354 27.5007 271.925 28.3488 270.767C28.1222 270.052 28 269.29 28 268.5C28 264.358 31.3579 261 35.5 261C39.6422 261 43 264.358 43 268.5C43 268.673 42.9941 268.845 42.9826 269.015C45.678 269.186 47.9865 270.781 49.1644 273.056C49.6953 272.161 50 271.116 50 270C50 266.942 47.7118 264.418 44.7541 264.047L46.3536 265.646C46.5489 265.842 46.5489 266.158 46.3536 266.354C46.1583 266.549 45.8418 266.549 45.6465 266.354L43.1465 263.854C42.9512 263.658 42.9512 263.342 43.1465 263.146L45.6465 260.646C45.8418 260.451 46.1583 260.451 46.3536 260.646C46.5489 260.842 46.5489 261.158 46.3536 261.354ZM36.9097 271.5C36.54 271.319 36.2031 271.117 35.8973 270.904C36.4708 270.256 36.8911 269.586 37.1972 268.974C37.5273 268.313 37.7258 267.719 37.8422 267.286C37.8705 267.181 37.8941 267.085 37.9135 267H39V266H36V264H35V266H32V267H36.8836L36.8766 267.026C36.7742 267.407 36.5976 267.937 36.3028 268.526C36.0238 269.084 35.6398 269.694 35.1129 270.281C34.8009 270 34.5359 269.717 34.3149 269.453C34.0112 269.091 33.7925 268.766 33.6509 268.535C33.5802 268.419 33.529 268.327 33.4962 268.265C33.4798 268.235 33.4681 268.212 33.4609 268.197L33.4534 268.182L33.4524 268.18C33.4524 268.18 33.4526 268.18 33 268.393C32.5474 268.606 32.5476 268.606 32.5476 268.606L32.5483 268.607L32.5496 268.61L32.5534 268.618L32.5664 268.644C32.5721 268.656 32.5791 268.67 32.5874 268.686C32.5951 268.701 32.6039 268.717 32.6138 268.736C32.6551 268.813 32.7161 268.923 32.7978 269.056C32.961 269.323 33.2081 269.689 33.5482 270.095C33.7842 270.377 34.066 270.679 34.3966 270.982C33.9394 271.373 33.4038 271.739 32.7764 272.053L33.2236 272.947C33.9919 272.563 34.6386 272.109 35.1823 271.623C35.5139 271.864 35.8801 272.094 36.2829 272.304C36.4737 272.022 36.6832 271.753 36.9097 271.5ZM42.5 283C46.0899 283 49 280.09 49 276.5C49 272.91 46.0899 270 42.5 270C38.9102 270 36 272.91 36 276.5C36 280.09 38.9102 283 42.5 283Z" fill="#8D8D8D"/>
<path fill-rule="evenodd" clip-rule="evenodd" d="M15 290H11C9.08611 290 7.75129 290.002 6.74416 290.138C5.76579 290.269 5.2477 290.51 4.87868 290.879C4.50966 291.248 4.26907 291.766 4.13753 292.744C4.00212 293.751 4 295.086 4 297V301C4 302.914 4.00212 304.249 4.13753 305.256C4.26907 306.234 4.50966 306.752 4.87868 307.121C5.2477 307.49 5.76579 307.731 6.74416 307.862C7.75129 307.998 9.08611 308 11 308H15C16.9139 308 18.2487 307.998 19.2558 307.862C20.2342 307.731 20.7523 307.49 21.1213 307.121C21.4903 306.752 21.7309 306.234 21.8625 305.256C21.9979 304.249 22 302.914 22 301V297C22 295.086 21.9979 293.751 21.8625 292.744C21.7309 291.766 21.4903 291.248 21.1213 290.879C20.7523 290.51 20.2342 290.269 19.2558 290.138C18.2487 290.002 16.9139 290 15 290ZM4.17157 290.172C3 291.343 3 293.229 3 297V301C3 304.771 3 306.657 4.17157 307.828C5.34315 309 7.22876 309 11 309H15C18.7712 309 20.6569 309 21.8284 307.828C23 306.657 23 304.771 23 301V297C23 293.229 23 291.343 21.8284 290.172C20.6569 289 18.7712 289 15 289H11C7.22876 289 5.34315 289 4.17157 290.172Z" fill="#a8a8a8"/>
<path d="M15.4019 299.874H11.606V302.718H16.043V304H10V294.758H15.9985V296.053H11.606V298.604H15.4019V299.874Z" fill="#585858"/>
<path d="M41.4019 299.874H37.606V302.718H42.043V304H36V294.758H41.9985V296.053H37.606V298.604H41.4019V299.874Z" fill="#585858"/>
<path d="M10.9966 292.784C10.8569 292.928 10.7871 293.106 10.7871 293.317C10.7871 293.529 10.8569 293.707 10.9966 293.851C11.1405 293.994 11.3372 294.066 11.5869 294.066C11.8366 294.066 12.0334 293.994 12.1772 293.851C12.3211 293.707 12.3931 293.529 12.3931 293.317C12.3931 293.106 12.3211 292.928 12.1772 292.784C12.0334 292.64 11.8366 292.568 11.5869 292.568C11.3372 292.568 11.1405 292.64 10.9966 292.784Z" fill="#CE4E4E"/>
<path d="M13.8975 292.791C13.7578 292.934 13.688 293.112 13.688 293.324C13.688 293.535 13.7578 293.713 13.8975 293.857C14.0413 294.001 14.2381 294.073 14.4878 294.073C14.7375 294.073 14.9342 294.001 15.0781 293.857C15.222 293.713 15.2939 293.535 15.2939 293.324C15.2939 293.112 15.222 292.934 15.0781 292.791C14.9342 292.647 14.7375 292.575 14.4878 292.575C14.2381 292.575 14.0413 292.647 13.8975 292.791Z" fill="#CE4E4E"/>
<path d="M36.9966 292.784C36.8569 292.928 36.7871 293.106 36.7871 293.317C36.7871 293.529 36.8569 293.707 36.9966 293.851C37.1405 293.994 37.3372 294.066 37.5869 294.066C37.8366 294.066 38.0334 293.994 38.1772 293.851C38.3211 293.707 38.3931 293.529 38.3931 293.317C38.3931 293.106 38.3211 292.928 38.1772 292.784C38.0334 292.64 37.8366 292.568 37.5869 292.568C37.3372 292.568 37.1405 292.64 36.9966 292.784Z" fill="#CE4E4E"/>
<path d="M39.8975 292.791C39.7578 292.934 39.688 293.112 39.688 293.324C39.688 293.535 39.7578 293.713 39.8975 293.857C40.0413 294.001 40.2381 294.073 40.4878 294.073C40.7375 294.073 40.9342 294.001 41.0781 293.857C41.222 293.713 41.2939 293.535 41.2939 293.324C41.2939 293.112 41.222 292.934 41.0781 292.791C40.9342 292.647 40.7375 292.575 40.4878 292.575C40.2381 292.575 40.0413 292.647 39.8975 292.791Z" fill="#CE4E4E"/>
<path d="M47.5 312C49.9853 312 52 309.985 52 307.5C52 305.015 49.9853 303 47.5 303C45.0147 303 43 305.015 43 307.5C43 309.985 45.0147 312 47.5 312Z" fill="#D02B2B"/>
<path fill-rule="evenodd" clip-rule="evenodd" d="M46.7929 307.5L45.1465 305.854L45.8536 305.146L47.5 306.793L49.1465 305.146L49.8536 305.854L48.2071 307.5L49.8536 309.146L49.1465 309.854L47.5 308.207L45.8536 309.854L45.1465 309.146L46.7929 307.5Z" fill="white"/>
<path d="M37 290H41C42.9139 290 44.2487 290.002 45.2558 290.138C46.2342 290.269 46.7523 290.51 47.1213 290.879C47.4903 291.248 47.7309 291.766 47.8625 292.744C47.9979 293.751 48 295.086 48 297V301C48 301.352 47.9999 301.685 47.999 302H48.9991C49 301.682 49 301.349 49 301V297C49 293.229 49 291.343 47.8284 290.172C46.6569 289 44.7712 289 41 289H37C33.2288 289 31.3431 289 30.1716 290.172C29 291.343 29 293.229 29 297V301C29 304.771 29 306.657 30.1716 307.828C31.3431 309 33.2288 309 37 309H41C41.3492 309 41.6822 309 42 308.999V307.999C41.6853 308 41.3524 308 41 308H37C35.0861 308 33.7513 307.998 32.7442 307.862C31.7658 307.731 31.2477 307.49 30.8787 307.121C30.5097 306.752 30.2691 306.234 30.1375 305.256C30.0021 304.249 30 302.914 30 301V297C30 295.086 30.0021 293.751 30.1375 292.744C30.2691 291.766 30.5097 291.248 30.8787 290.879C31.2477 290.51 31.7658 290.269 32.7442 290.138C33.7513 290.002 35.0861 290 37 290Z" fill="#a8a8a8"/>
</svg>